<!DOCTYPE svg PUBLIC "-//W3C//DTD SVG 1.1//EN" "http://www.w3.org/Graphics/SVG/1.1/DTD/svg11.dtd">
<!-- Uploaded to: SVG Repo, www.svgrepo.com, Transformed by: SVG Repo Mixer Tools -->
<svg version="1.1" id="Layer_1" xmlns="http://www.w3.org/2000/svg" xmlns:xlink="http://www.w3.org/1999/xlink" viewBox="0 0 511.985 511.985" xml:space="preserve" width="128px" height="128px" fill="#000000">
<g id="SVGRepo_bgCarrier" stroke-width="0"/>
<g id="SVGRepo_tracerCarrier" stroke-linecap="round" stroke-linejoin="round"/>
<g id="SVGRepo_iconCarrier"> <g> <path style="fill:#E8D4B1;" d="M233.049,278.151c0,0-27.454-20.392-24.654-49.122s34.798-54.919,34.798-54.919 s27.455,20.392,24.654,49.122S233.049,278.151,233.049,278.151z"/> <path style="fill:#E8D4B1;" d="M302.256,208.944c0,0-27.454-20.392-24.654-49.122c2.801-28.73,34.798-54.919,34.798-54.919 s27.456,20.392,24.654,49.122C334.253,182.755,302.256,208.944,302.256,208.944z"/> <path style="fill:#E8D4B1;" d="M164.036,347.164c0,0-27.454-20.392-24.654-49.122c2.801-28.73,34.798-54.919,34.798-54.919 s27.454,20.392,24.654,49.122C196.034,320.975,164.036,347.164,164.036,347.164z"/> <path style="fill:#E8D4B1;" d="M94.829,416.371c0,0-27.454-20.392-24.654-49.122c2.801-28.73,34.798-54.919,34.798-54.919 s27.454,20.392,24.654,49.122C126.826,390.182,94.829,416.371,94.829,416.371z"/> <path style="fill:#E8D4B1;" d="M413.964,144.274c-16.987,16.987-33.397,12.741-46.137,0s-16.987-29.15,0-46.137 c16.987-16.987,61.517-15.379,61.517-15.379S430.952,127.286,413.964,144.274z"/> <path style="fill:#E8D4B1;" d="M305.29,211.979c0,0,20.392,27.454,49.122,24.654s54.919-34.798,54.919-34.798 s-20.392-27.454-49.122-24.654S305.29,211.979,305.29,211.979z"/> <path style="fill:#E8D4B1;" d="M236.085,281.185c0,0,20.392,27.454,49.122,24.654c28.73-2.801,54.919-34.798,54.919-34.798 s-20.392-27.454-49.122-24.654C262.273,249.187,236.085,281.185,236.085,281.185z"/> <path style="fill:#E8D4B1;" d="M167.07,350.199c0,0,20.392,27.456,49.122,24.654s54.919-34.798,54.919-34.798 s-20.392-27.454-49.122-24.654C193.259,318.202,167.07,350.199,167.07,350.199z"/> <path style="fill:#E8D4B1;" d="M97.864,419.405c0,0,20.392,27.454,49.122,24.654c28.73-2.801,54.919-34.798,54.919-34.798 s-20.392-27.454-49.122-24.654C124.053,387.408,97.864,419.405,97.864,419.405z"/> </g> <g> <path style="fill:#BFAE95;" d="M164.036,316.521c0,0-15.671-11.649-22.123-29.737c-1.259,3.672-2.159,7.442-2.531,11.259 c-2.801,28.73,24.653,49.122,24.653,49.122s31.997-26.189,34.798-54.919c0.684-7.02-0.445-13.537-2.531-19.384 C188.083,296.826,164.036,316.521,164.036,316.521z"/> <path style="fill:#BFAE95;" d="M260.881,329.524c-10.24,9.582-26.976,22.401-44.689,24.128 c-16.459,1.605-30.172-6.718-38.891-14.123c-6.369,5.96-10.23,10.67-10.23,10.67s20.392,27.454,49.122,24.653 s54.919-34.798,54.919-34.798S267.381,335.044,260.881,329.524z"/> <path style="fill:#BFAE95;" d="M94.829,386.477c0,0-15.887-11.815-22.253-30.121c-1.193,3.556-2.041,7.202-2.4,10.892 c-2.801,28.73,24.653,49.122,24.653,49.122s31.997-26.189,34.798-54.919c0.67-6.867-0.4-13.251-2.4-19.001 C119.129,366.582,94.829,386.477,94.829,386.477z"/> <path style="fill:#BFAE95;" d="M192.52,399.454c-10.147,9.651-27.325,23.15-45.535,24.925 c-16.997,1.657-31.072-7.275-39.737-14.847c-5.863,5.577-9.385,9.873-9.385,9.873s20.391,27.456,49.121,24.654 s54.919-34.798,54.919-34.798S198.5,404.682,192.52,399.454z"/> <path style="fill:#BFAE95;" d="M331.95,262.316c-9.953,9.692-27.793,24.24-46.744,26.087c-17.815,1.737-32.419-8.158-40.948-15.928 c-5.135,5-8.175,8.711-8.175,8.711s20.392,27.454,49.122,24.653c28.73-2.801,54.919-34.798,54.919-34.798 S337.175,267.077,331.95,262.316z"/> <path style="fill:#BFAE95;" d="M400.384,192.416c-10.085,9.675-27.497,23.542-45.971,25.344 c-17.29,1.686-31.551-7.584-40.175-15.236c-5.598,5.371-8.948,9.455-8.948,9.455s20.392,27.456,49.122,24.654 s54.919-34.798,54.919-34.798S406.089,197.478,400.384,192.416z"/> <path style="fill:#BFAE95;" d="M428.26,82.731c-1.594,13.664-5.386,30.15-14.297,39.06c-16.987,16.987-33.397,12.741-46.137,0 c-3.672-3.672-6.634-7.653-8.59-11.861c-5.93,12.673-1.168,24.585,8.59,34.342c12.741,12.741,29.15,16.987,46.137,0 s15.379-61.517,15.379-61.517S428.961,82.743,428.26,82.731z"/> <path style="fill:#BFAE95;" d="M233.049,245.105c0,0-14.992-11.15-21.685-28.566c-1.492,4.058-2.554,8.244-2.969,12.49 c-2.801,28.73,24.653,49.122,24.653,49.122s31.997-26.189,34.798-54.919c0.731-7.493-0.607-14.411-2.969-20.557 C256.277,226.08,233.049,245.105,233.049,245.105z"/> <path style="fill:#BFAE95;" d="M302.256,175.898c0,0-14.992-11.15-21.685-28.566c-1.492,4.058-2.554,8.244-2.969,12.49 c-2.801,28.73,24.654,49.122,24.654,49.122s31.997-26.189,34.798-54.919c0.731-7.493-0.607-14.411-2.969-20.557 C325.484,156.874,302.256,175.898,302.256,175.898z"/> </g> <rect x="36.375" y="412.7" transform="matrix(0.706 0.7082 -0.7082 0.706 344.1421 105.8898)" width="16.312" height="109.497"/> <path d="M221.197,307.283c-6.917,0.674-13.636,2.783-19.926,5.68c2.897-6.29,5.006-13.007,5.68-19.926 c3.211-32.942-26.637-55.516-27.909-56.461l-5.106-3.793l-4.922,4.029c-1.414,1.157-34.656,28.701-37.751,60.439 c-3.21,32.941,26.637,55.516,27.909,56.461l0.773,0.574l0.576,0.775c0.896,1.207,21.272,28.149,51.503,28.149 c1.623,0,3.28-0.078,4.958-0.241c31.739-3.095,59.283-36.337,60.439-37.75l4.029-4.923l-3.793-5.107 C276.714,333.92,254.156,304.072,221.197,307.283z M147.5,298.834c1.801-18.469,18.217-36.524,26.75-44.762 c6.822,6.75,18.101,20.629,16.468,37.381c-1.802,18.483-18.24,36.551-26.77,44.781C157.124,329.531,145.853,315.714,147.5,298.834z M215.401,366.735c-16.756,1.627-30.632-9.646-37.381-16.468c8.239-8.536,26.293-24.949,44.759-26.75 c16.784-1.624,30.682,9.685,37.412,16.498C250.75,349.804,232.693,365.049,215.401,366.735z"/> <path d="M151.991,376.489c-6.917,0.674-13.636,2.783-19.926,5.68c2.897-6.29,5.006-13.007,5.68-19.926 c3.211-32.942-26.637-55.516-27.909-56.461l-5.106-3.793l-4.922,4.029c-1.414,1.157-34.656,28.701-37.751,60.439 c-3.21,32.941,26.637,55.516,27.909,56.461l0.773,0.574l0.576,0.775c0.896,1.207,21.272,28.149,51.503,28.149 c1.624,0,3.28-0.077,4.958-0.241c31.739-3.095,59.283-36.337,60.439-37.75l4.029-4.922l-3.792-5.107 C207.508,403.126,184.926,373.283,151.991,376.489z M78.293,368.04c1.801-18.469,18.217-36.524,26.75-44.762 c6.822,6.75,18.101,20.629,16.468,37.381c-1.802,18.483-18.24,36.551-26.77,44.781C87.918,398.738,76.648,384.92,78.293,368.04z M146.195,435.941c-16.751,1.639-30.632-9.645-37.381-16.468c8.239-8.536,26.293-24.949,44.759-26.75 c16.78-1.633,30.681,9.685,37.412,16.498C181.544,419.011,163.486,434.256,146.195,435.941z"/> <path d="M290.211,238.268c-6.919,0.674-13.637,2.783-19.927,5.681c2.897-6.29,5.006-13.008,5.68-19.926 c3.211-32.941-26.636-55.516-27.908-56.461l-5.106-3.793l-4.922,4.029c-1.414,1.156-34.657,28.701-37.751,60.439 c-3.211,32.941,26.636,55.517,27.908,56.462l0.775,0.576l0.574,0.773c0.897,1.207,21.272,28.15,51.503,28.15 c1.623,0,3.279-0.078,4.958-0.241c31.739-3.095,59.283-36.336,60.439-37.75l4.029-4.922l-3.792-5.107 C345.726,264.906,323.123,235.053,290.211,238.268z M216.514,229.82c1.8-18.468,18.216-36.524,26.749-44.761 c6.822,6.75,18.101,20.629,16.468,37.381c-1.802,18.483-18.24,36.551-26.77,44.781C226.137,260.517,214.868,246.7,216.514,229.82z M284.414,297.721c-16.773,1.629-30.673-9.68-37.411-16.498c9.444-9.789,27.501-25.033,44.791-26.718 c16.783-1.639,30.681,9.685,37.411,16.498C319.764,280.791,301.706,296.035,284.414,297.721z"/> <path d="M359.418,169.063c-6.919,0.674-13.637,2.783-19.927,5.681c2.897-6.29,5.006-13.008,5.68-19.926 c3.211-32.941-26.636-55.516-27.908-56.461l-5.106-3.793l-4.922,4.029c-1.414,1.156-34.657,28.701-37.751,60.439 c-3.211,32.941,26.636,55.517,27.908,56.462l0.775,0.576l0.574,0.773c0.897,1.207,21.272,28.15,51.503,28.15 c1.623,0,3.279-0.078,4.958-0.241c31.739-3.095,59.283-36.336,60.439-37.75l4.029-4.922l-3.792-5.107 C414.933,195.699,392.341,165.858,359.418,169.063z M285.72,160.613c1.8-18.468,18.216-36.524,26.749-44.761 c6.822,6.75,18.101,20.629,16.468,37.381c-1.802,18.483-18.24,36.551-26.77,44.781C295.344,191.311,284.075,177.494,285.72,160.613z M353.621,228.515c-16.779,1.633-30.672-9.679-37.411-16.498c9.444-9.789,27.501-25.033,44.791-26.718 c16.787-1.634,30.681,9.686,37.411,16.498C388.971,211.585,370.912,226.828,353.621,228.515z"/> <rect x="453.726" y="28.458" transform="matrix(0.7071 -0.7071 0.7071 0.7071 113.3738 346.9359)" width="43.499" height="16.312"/> <rect x="405.998" y="24.622" transform="matrix(0.7071 -0.7071 0.7071 0.7071 103.6995 315.908)" width="54.373" height="16.312"/> <rect x="363.5" y="-11.644" transform="matrix(-0.7071 -0.7071 0.7071 -0.7071 600.3985 345.0258)" width="16.312" height="119.621"/> <rect x="455.769" y="80.626" transform="matrix(-0.7071 -0.7071 0.7071 -0.7071 692.6655 567.7853)" width="16.312" height="119.621"/> <rect x="471.187" y="51.713" transform="matrix(0.7071 0.7071 -0.7071 0.7071 196.1871 -315.8377)" width="16.312" height="54.373"/> <path d="M437.494,82.463l-0.274-7.583l-7.583-0.274c-4.925-0.179-48.626-1.19-67.579,17.763c-18.056,18.056-18.056,39.616,0,57.672 c9.028,9.028,18.932,13.542,28.837,13.542c9.905,0,19.808-4.514,28.837-13.542C438.682,131.088,437.671,87.383,437.494,82.463z M408.195,138.507c-11.803,11.803-22.799,11.803-34.601,0c-11.803-11.803-11.803-22.799,0-34.603 c9.721-9.722,33.19-12.509,47.585-12.975C420.725,105.314,417.946,128.755,408.195,138.507z"/> <rect x="489.697" y="247.82" width="16.312" height="16.312"/> <rect x="457.073" y="247.82" width="16.312" height="16.312"/> <rect x="424.448" y="247.82" width="16.312" height="16.312"/> <rect x="71.019" y="247.82" width="16.312" height="16.312"/> <rect x="38.394" y="247.82" width="16.312" height="16.312"/> <rect x="5.765" y="247.82" width="16.312" height="16.312"/> </g>
</svg>