<!DOCTYPE svg PUBLIC "-//W3C//DTD SVG 1.1//EN" "http://www.w3.org/Graphics/SVG/1.1/DTD/svg11.dtd">
<!-- Uploaded to: SVG Repo, www.svgrepo.com, Transformed by: SVG Repo Mixer Tools -->
<svg version="1.1" id="Layer_1" xmlns="http://www.w3.org/2000/svg" xmlns:xlink="http://www.w3.org/1999/xlink" viewBox="0 0 512 512" xml:space="preserve" width="128px" height="128px" fill="#000000">
<g id="SVGRepo_bgCarrier" stroke-width="0"/>
<g id="SVGRepo_tracerCarrier" stroke-linecap="round" stroke-linejoin="round"/>
<g id="SVGRepo_iconCarrier"> <rect x="15.816" y="234.584" style="fill:#FFCAAB;" width="246.731" height="246.731"/> <polygon style="fill:#FFB085;" points="272.75,116.539 217.459,234.584 262.542,234.584 262.542,384.209 391.526,444.625 496.181,221.194 "/> <polygon style="fill:#FFCAAB;" points="313.155,135.465 313.155,30.69 66.431,30.69 66.431,234.584 217.459,234.584 272.75,116.539 "/> <path d="M77.499,386.175c-8.735,0-15.816-7.081-15.816-15.816v-68.841c0-8.735,7.081-15.816,15.816-15.816 s15.816,7.081,15.816,15.816v68.84C93.315,379.094,86.234,386.175,77.499,386.175z"/> <path d="M77.497,433.631c-1.028,0-2.072-0.111-3.084-0.316s-2.009-0.506-2.958-0.902c-0.965-0.395-1.882-0.886-2.736-1.455 c-0.87-0.569-1.677-1.234-2.404-1.961c-0.728-0.728-1.392-1.55-1.961-2.404c-0.569-0.87-1.06-1.787-1.455-2.736 c-0.395-0.949-0.712-1.945-0.902-2.958c-0.206-1.028-0.316-2.056-0.316-3.1c0-4.16,1.692-8.224,4.634-11.182 c0.728-0.728,1.534-1.392,2.404-1.961c0.854-0.569,1.771-1.06,2.736-1.455c0.949-0.395,1.945-0.696,2.958-0.902 c2.04-0.411,4.128-0.411,6.168,0c1.012,0.206,2.009,0.506,2.958,0.902c0.965,0.395,1.882,0.886,2.736,1.455 c0.87,0.569,1.677,1.234,2.404,1.961c2.942,2.958,4.634,7.022,4.634,11.182c0,1.044-0.095,2.072-0.301,3.1 c-0.206,1.012-0.506,2.009-0.902,2.958c-0.395,0.949-0.886,1.866-1.455,2.736c-0.585,0.854-1.249,1.677-1.977,2.404 c-0.728,0.728-1.534,1.392-2.404,1.961c-0.854,0.569-1.771,1.06-2.736,1.455c-0.949,0.395-1.945,0.696-2.958,0.902 C79.569,433.521,78.525,433.631,77.497,433.631z"/> <path d="M502.89,206.873l-173.918-81.465V30.69c0-8.735-7.082-15.816-15.816-15.816H66.429c-8.735,0-15.816,7.081-15.816,15.816 v188.079H15.816C7.081,218.768,0,225.849,0,234.584v246.726c0,8.735,7.081,15.816,15.816,15.816h246.726 c8.734,0,15.816-7.081,15.816-15.816v-72.227l106.458,49.865c2.17,1.017,4.452,1.498,6.698,1.498c5.947,0,11.644-3.37,14.334-9.112 l104.655-223.431C514.208,219.992,510.8,210.577,502.89,206.873z M82.245,46.506h215.094v64.085l-17.88-8.375 c-3.801-1.779-8.148-1.977-12.093-0.549c-3.943,1.428-7.158,4.364-8.938,8.163l-51.026,108.936h-71.384v-54.849 c0-8.735-7.081-15.816-15.816-15.816s-15.816,7.081-15.816,15.816v54.849H82.245V46.506z M246.726,465.495H31.632V250.4h34.797 h151.028h29.268v133.81v81.284H246.726z M383.91,423.593l-105.552-49.441V234.584c0-8.735-7.082-15.816-15.816-15.816h-20.211 l38.033-81.197l26.082,12.216c0.006,0.003,0.013,0.005,0.019,0.008l168.683,79.012L383.91,423.593z"/> <path d="M120.201,132.286c-4.16,0-8.24-1.692-11.182-4.634c-0.728-0.728-1.392-1.534-1.961-2.404 c-0.569-0.854-1.06-1.771-1.455-2.736c-0.395-0.949-0.696-1.945-0.902-2.958c-0.206-1.012-0.316-2.056-0.316-3.084 s0.111-2.072,0.316-3.084s0.506-2.009,0.902-2.958c0.395-0.965,0.886-1.882,1.455-2.736c0.569-0.87,1.234-1.677,1.961-2.404 c3.669-3.669,9.142-5.362,14.266-4.318c1.012,0.19,2.009,0.506,2.973,0.902c0.949,0.395,1.866,0.886,2.72,1.455 c0.87,0.569,1.676,1.234,2.404,1.961c0.728,0.728,1.392,1.534,1.961,2.404c0.569,0.854,1.06,1.771,1.455,2.736 c0.395,0.949,0.712,1.945,0.902,2.958c0.206,1.012,0.316,2.056,0.316,3.084s-0.111,2.072-0.316,3.084 c-0.19,1.012-0.506,2.009-0.902,2.958c-0.395,0.965-0.886,1.882-1.455,2.736c-0.569,0.87-1.234,1.677-1.961,2.404 s-1.534,1.392-2.404,1.961c-0.854,0.569-1.771,1.06-2.72,1.455c-0.965,0.395-1.961,0.712-2.973,0.902 C122.273,132.177,121.229,132.286,120.201,132.286z"/> </g>
</svg>